<svg width="22" height="23" viewBox="0 0 22 23" fill="none" xmlns="http://www.w3.org/2000/svg">
<path d="M21.8169 4.89426C22.0746 5.92334 22.0603 6.96671 21.774 8.02438C21.4877 9.05346 20.958 9.9682 20.1849 10.7686C19.326 11.5976 18.3239 12.1407 17.1787 12.398C16.0334 12.6552 14.9168 12.5981 13.8288 12.2265L4.68119 21.3596C4.1372 21.9027 3.47868 22.1743 2.70564 22.1743C1.96123 22.1743 1.31703 21.9027 0.77304 21.3596C0.25768 20.845 0 20.2018 0 19.43C0 18.6868 0.271996 18.0436 0.815987 17.5005L9.96363 8.32453C9.59142 7.26686 9.53416 6.16632 9.79184 5.02289C10.0495 3.85088 10.5935 2.85039 11.4238 2.02141C12.1969 1.24959 13.1131 0.72076 14.1724 0.434904C15.2318 0.149048 16.2768 0.134755 17.3075 0.392026C17.5079 0.449197 17.6225 0.577832 17.6511 0.777932C17.7083 0.949445 17.6654 1.10667 17.5222 1.24959L14.3442 4.46547L14.8166 7.38121L17.737 7.85287L20.958 4.67987C21.1011 4.53694 21.2586 4.49406 21.4304 4.55123C21.6308 4.57982 21.7596 4.69416 21.8169 4.89426ZM2.01849 20.159C2.21891 20.3591 2.46228 20.4591 2.74859 20.4591C3.0349 20.4591 3.27826 20.3591 3.47868 20.159C3.6791 19.9589 3.77931 19.7159 3.77931 19.43C3.77931 19.1442 3.6791 18.9012 3.47868 18.7011C3.27826 18.501 3.0349 18.401 2.74859 18.401C2.46228 18.401 2.21891 18.501 2.01849 18.7011C1.81808 18.9012 1.71787 19.1442 1.71787 19.43C1.71787 19.7159 1.81808 19.9589 2.01849 20.159Z" fill="#8A8A8A"/>
</svg>
