<svg width="27" height="18" viewBox="0 0 27 18" fill="none" xmlns="http://www.w3.org/2000/svg">
<path d="M18.3516 0.204346C18.7172 0.204346 19.0266 0.336792 19.2797 0.601684L21.6 3.02986V11.5947C21.4875 11.4476 21.375 11.3298 21.2625 11.2415L15.1031 6.03198L16.2 4.97241C16.5375 4.64865 16.5656 4.31018 16.2844 3.95699C16.1438 3.80982 15.975 3.73624 15.7781 3.73624C15.6094 3.73624 15.4547 3.79511 15.3141 3.91284L11.9391 7.13569V7.17984C11.5734 7.47417 11.1516 7.60661 10.6734 7.57718C10.1953 7.54775 9.81563 7.37115 9.53438 7.0474C9.25313 6.69421 9.1125 6.28215 9.1125 5.81123C9.1125 5.31088 9.29531 4.89883 9.66094 4.57507V4.53092L13.7953 0.557535C14.0484 0.322076 14.3578 0.204346 14.7234 0.204346H18.3516ZM22.95 3.02986H27V14.3319H24.3C23.9344 14.3319 23.6109 14.1995 23.3297 13.9346C23.0766 13.6403 22.95 13.3018 22.95 12.9192V3.02986ZM24.4688 12.7426C24.6094 12.8603 24.7781 12.9192 24.975 12.9192C25.1719 12.9192 25.3266 12.8603 25.4391 12.7426C25.5797 12.5954 25.65 12.4188 25.65 12.2128C25.65 12.0068 25.5797 11.8449 25.4391 11.7272C25.3266 11.58 25.1719 11.5064 24.975 11.5064C24.7781 11.5064 24.6094 11.58 24.4688 11.7272C24.3563 11.8449 24.3 12.0068 24.3 12.2128C24.3 12.4188 24.3563 12.5954 24.4688 12.7426ZM0 14.3319V3.02986H4.05V12.9192C4.05 13.3018 3.90938 13.6403 3.62813 13.9346C3.375 14.1995 3.06562 14.3319 2.7 14.3319H0ZM2.48906 11.7272C2.37656 11.58 2.22188 11.5064 2.025 11.5064C1.82813 11.5064 1.65938 11.58 1.51875 11.7272C1.40625 11.8449 1.35 12.0068 1.35 12.2128C1.35 12.4188 1.40625 12.5954 1.51875 12.7426C1.65938 12.8603 1.82813 12.9192 2.025 12.9192C2.22188 12.9192 2.37656 12.8603 2.48906 12.7426C2.62969 12.5954 2.7 12.4188 2.7 12.2128C2.7 12.0068 2.62969 11.8449 2.48906 11.7272ZM20.4188 12.3452C20.7 12.5807 20.8547 12.8897 20.8828 13.2724C20.9391 13.655 20.8406 14.0082 20.5875 14.3319L20.2078 14.8617C19.9828 15.156 19.6734 15.3326 19.2797 15.3915C18.9141 15.4209 18.5906 15.3032 18.3094 15.0383L18.0984 14.8617L16.7484 16.5394C16.4953 16.8926 16.1438 17.0986 15.6938 17.1575C15.2719 17.2163 14.8922 17.0986 14.5547 16.8043L13.7953 16.0979C13.3172 16.716 12.6984 17.0692 11.9391 17.1575C11.2078 17.2457 10.5609 17.0397 9.99844 16.5394L6.15938 12.9192H5.4V3.02986L7.72031 0.601684C7.97344 0.336792 8.28281 0.204346 8.64844 0.204346H12.1922L8.73281 3.5155C8.11406 4.10415 7.79063 4.83996 7.7625 5.72293C7.73438 6.60591 8.00156 7.37115 8.56406 8.01867C9.12656 8.63675 9.81563 8.97522 10.6313 9.03409C11.475 9.06352 12.2203 8.78391 12.8672 8.19526L14.1328 7.00325L20.4188 12.3452Z" fill="#8A8A8A"/>
</svg>
