<svg width="25" height="21" viewBox="0 0 25 21" fill="none" xmlns="http://www.w3.org/2000/svg">
<path d="M19.4531 9.02161C19.8177 9.38561 20 9.82762 20 10.3476C20 10.8676 19.8177 11.3096 19.4531 11.6736L11.4844 19.6297C11.1198 19.9937 10.6771 20.1757 10.1562 20.1757C9.63542 20.1757 9.19271 19.9937 8.82812 19.6297L0.546875 11.3616C0.182292 10.9976 0 10.5556 0 10.0356V2.07954C0 1.55953 0.182292 1.11753 0.546875 0.753525C0.911458 0.389521 1.35417 0.20752 1.875 0.20752H9.84375C10.3646 0.20752 10.8073 0.389521 11.1719 0.753525L19.4531 9.02161ZM3.04688 5.90158C3.41146 6.26558 3.85417 6.44758 4.375 6.44758C4.89583 6.44758 5.33854 6.26558 5.70312 5.90158C6.06771 5.53757 6.25 5.09557 6.25 4.57556C6.25 4.05556 6.06771 3.61355 5.70312 3.24955C5.33854 2.88555 4.89583 2.70354 4.375 2.70354C3.85417 2.70354 3.41146 2.88555 3.04688 3.24955C2.68229 3.61355 2.5 4.05556 2.5 4.57556C2.5 5.09557 2.68229 5.53757 3.04688 5.90158ZM24.4531 11.6736L16.4844 19.6297C16.1198 19.9937 15.6771 20.1757 15.1562 20.1757C14.6354 20.1757 14.1927 19.9937 13.8281 19.6297L20.625 12.8436C21.3021 12.1416 21.6406 11.3096 21.6406 10.3476C21.6406 9.38561 21.3021 8.5536 20.625 7.8516L12.9297 0.20752H14.8438C15.3646 0.20752 15.8073 0.389521 16.1719 0.753525L24.4531 9.02161C24.8177 9.38561 25 9.82762 25 10.3476C25 10.8676 24.8177 11.3096 24.4531 11.6736Z" fill="#8A8A8A"/>
</svg>
