<svg width="18" height="19" viewBox="0 0 18 19" fill="none" xmlns="http://www.w3.org/2000/svg">
<path fill-rule="evenodd" clip-rule="evenodd" d="M15.075 2.83655H2.925C2.55 2.83655 2.25 3.14203 2.25 3.52389V15.896C2.25 16.2015 2.55 16.5833 2.925 16.5833H15.075C15.375 16.5833 15.75 16.2015 15.75 15.896V3.52389C15.75 3.14203 15.375 2.83655 15.075 2.83655ZM6.75 5.89138H5.25V7.4188H6.75V5.89138ZM12.75 5.89138H8.25V7.4188H12.75V5.89138ZM12.75 8.94622H8.25V10.4736H12.75V8.94622ZM8.25 12.0011H12.75V13.5285H8.25V12.0011ZM5.25 8.94622H6.75V10.4736H5.25V8.94622ZM6.75 12.0011H5.25V13.5285H6.75V12.0011ZM3.75 15.0559H14.25V4.36397H3.75V15.0559Z" fill="#86BE5C"/>
</svg>
