<svg width="30" height="30" viewBox="0 0 30 30" fill="none" xmlns="http://www.w3.org/2000/svg">
<path fill-rule="evenodd" clip-rule="evenodd" d="M15 30C23.2843 30 30 23.2843 30 15C30 6.71573 23.2843 0 15 0C6.71573 0 0 6.71573 0 15C0 23.2843 6.71573 30 15 30ZM15 27.1875C21.731 27.1875 27.1875 21.731 27.1875 15C27.1875 8.26903 21.731 2.8125 15 2.8125C8.26903 2.8125 2.8125 8.26903 2.8125 15C2.8125 21.731 8.26903 27.1875 15 27.1875Z" fill="white"/>
<path d="M21.4637 14.1859C20.8963 14.63 20.1808 15.1727 17.6644 16.9984C17.171 17.3684 16.2581 18.1826 15.3946 18.1826C14.5065 18.1826 13.6183 17.3684 13.1002 16.9984C10.5838 15.1727 9.86833 14.63 9.3009 14.1859C9.20221 14.1119 9.07886 14.1859 9.07886 14.3092V19.3421C9.07886 20.0082 9.59695 20.5263 10.2631 20.5263H20.5262C21.1677 20.5263 21.7104 20.0082 21.7104 19.3421V14.3092C21.7104 14.1859 21.5624 14.1119 21.4637 14.1859ZM15.3946 16.579C15.9621 16.6036 16.7762 15.8635 17.1956 15.5675C20.4769 13.199 20.7236 12.977 21.4637 12.3849C21.6118 12.2862 21.7104 12.1135 21.7104 11.9161V11.4474C21.7104 10.8059 21.1677 10.2632 20.5262 10.2632H10.2631C9.59695 10.2632 9.07886 10.8059 9.07886 11.4474V11.9161C9.07886 12.1135 9.15287 12.2862 9.3009 12.3849C10.041 12.977 10.2877 13.199 13.569 15.5675C13.9884 15.8635 14.8025 16.6036 15.3946 16.579Z" fill="white"/>
</svg>
