<svg width="24" height="24" viewBox="0 0 24 24" fill="none" xmlns="http://www.w3.org/2000/svg">
<path d="M22.8884 5.39727C23.0195 5.57218 23.1068 5.70336 23.1505 5.87826C23.1505 5.96572 23.1942 6.14062 23.1942 6.31553V6.40298H17.6027V0.805969H17.69C17.8648 0.805969 18.0395 0.849696 18.1269 0.849696C18.3016 0.893423 18.4327 0.980876 18.6074 1.11206L22.8884 5.39727ZM16.2048 6.7528C16.2048 7.05888 16.2921 7.32124 16.5106 7.49615C16.6853 7.71478 16.9474 7.80224 17.2532 7.80224H23.1942V22.1446C23.1942 22.4507 23.0632 22.713 22.8884 22.8879C22.67 23.1066 22.4079 23.194 22.1458 23.194H10.6132V19.2149C10.9627 19.04 11.3122 18.8214 11.5743 18.5153C11.8364 18.2092 12.0548 17.8594 12.1858 17.4221L12.3169 16.8974C12.3169 16.8974 12.3606 16.8099 12.4479 16.7225L12.6227 16.5913C12.9722 16.2415 13.1906 15.8479 13.3216 15.367C13.409 14.9297 13.409 14.4487 13.3216 13.9677L13.2343 13.7491C13.1906 13.6179 13.1906 13.5304 13.1906 13.4867C13.1906 13.443 13.1906 13.3555 13.2343 13.2243L13.3216 13.0057C13.409 12.5684 13.409 12.0875 13.3216 11.6065C13.1906 11.1692 12.9722 10.7757 12.6227 10.4258L12.4479 10.2509C12.3606 10.1635 12.2732 10.1198 12.2732 10.076C12.2732 10.0323 12.2295 9.94485 12.2295 9.81366L12.1422 9.59503C12.0111 9.15776 11.7927 8.7205 11.4432 8.37068C11.0937 8.02087 10.7006 7.80224 10.2637 7.67106L9.78322 7.53988L9.60848 7.36497L9.47743 7.19006C8.95322 6.66534 8.29796 6.40298 7.55533 6.40298C7.3806 6.40298 7.29323 6.44671 7.20586 6.44671L6.41955 6.62162V1.85541C6.41955 1.59305 6.50692 1.33069 6.72534 1.11206C6.90007 0.937149 7.16218 0.805969 7.46797 0.805969H16.2048V6.7528ZM11.6179 15.5856L11.5306 15.7168C11.2685 15.9791 11.0937 16.154 11.0501 16.2415C11.0064 16.3289 10.9627 16.5476 10.8753 16.8974L10.8316 17.0723C10.7443 17.2909 10.6569 17.4658 10.4822 17.6407C10.3074 17.8156 10.089 17.9468 9.91427 17.9906L9.65217 18.0343C9.43375 18.1217 9.30269 18.1655 9.25901 18.1655L9.21533 18.2092V23.194L6.41955 21.7948L3.62377 23.194V18.2092L3.58009 18.1655C3.49272 18.1655 3.36167 18.1217 3.18693 18.0343L2.92483 17.9906C2.70641 17.9468 2.53167 17.8156 2.35694 17.6407C2.1822 17.4658 2.05115 17.2909 2.00746 17.0723L1.96378 16.8974C1.87641 16.5476 1.78904 16.3289 1.74536 16.2415C1.70167 16.154 1.57062 15.9791 1.30852 15.7168L1.22115 15.5856C1.04641 15.4544 0.915362 15.2795 0.871678 15.0171C0.78431 14.7985 0.78431 14.5799 0.871678 14.3175L0.915362 14.1863C1.00273 13.8365 1.04641 13.6179 1.04641 13.4867C1.04641 13.3993 1.00273 13.1806 0.915362 12.8308L0.871678 12.6559C0.78431 12.4373 0.78431 12.2186 0.871678 12C0.915362 11.7814 1.04641 11.5627 1.22115 11.3878L1.30852 11.2566C1.57062 11.038 1.70167 10.8631 1.74536 10.7757C1.78904 10.6882 1.87641 10.4696 1.96378 10.1198L2.00746 9.94485C2.05115 9.72621 2.1822 9.5513 2.35694 9.3764C2.53167 9.20149 2.70641 9.11404 2.92483 9.02658L3.09956 8.98286C3.40535 8.8954 3.62377 8.85168 3.71114 8.76422C3.79851 8.7205 3.97324 8.54559 4.23535 8.28323L4.3664 8.19578C4.49745 8.02087 4.67219 7.93342 4.93429 7.84596C5.15271 7.80224 5.37113 7.80224 5.58955 7.84596L5.76429 7.88969C6.07008 7.97714 6.2885 8.02087 6.41955 8.02087C6.50692 8.02087 6.72534 7.97714 7.07481 7.88969L7.24955 7.84596C7.42428 7.80224 7.6427 7.80224 7.90481 7.84596C8.12323 7.93342 8.29796 8.02087 8.4727 8.19578L8.60375 8.28323C8.82217 8.54559 8.99691 8.7205 9.08427 8.76422C9.17164 8.85168 9.39006 8.8954 9.73953 8.98286L9.91427 9.02658C10.089 9.11404 10.3074 9.20149 10.4822 9.3764C10.6569 9.5513 10.7443 9.72621 10.8316 9.94485L10.8753 10.1198C10.9627 10.4696 11.0064 10.6882 11.0501 10.7757C11.0937 10.8631 11.2685 11.038 11.5306 11.3004L11.6179 11.3878C11.7927 11.5627 11.8801 11.7814 11.9674 12C12.0111 12.2186 12.0111 12.4373 11.9674 12.6559L11.9237 12.8308C11.8364 13.1806 11.7927 13.3993 11.7927 13.4867C11.7927 13.6179 11.8364 13.8365 11.9237 14.1863L11.9674 14.3175C12.0111 14.5799 12.0111 14.7985 11.9674 15.0171C11.8801 15.2795 11.7927 15.4544 11.6179 15.5856ZM6.41955 16.1978C7.20586 16.1978 7.86112 15.9354 8.38533 15.4107C8.90954 14.886 9.21533 14.1863 9.21533 13.3993C9.21533 12.6122 8.90954 11.9563 8.38533 11.4316C7.86112 10.9068 7.20586 10.6007 6.41955 10.6007C5.63324 10.6007 4.93429 10.9068 4.41008 11.4316C3.88588 11.9563 3.62377 12.6122 3.62377 13.3993C3.62377 14.1863 3.88588 14.886 4.41008 15.4107C4.93429 15.9354 5.63324 16.1978 6.41955 16.1978Z" fill="#8A8A8A"/>
</svg>
