<svg width="34" height="48" viewBox="0 0 34 48" fill="none" xmlns="http://www.w3.org/2000/svg">
<path d="M17 22.8333C15.4529 22.8333 13.9691 22.2187 12.8752 21.1247C11.7812 20.0308 11.1666 18.5471 11.1666 17C11.1666 15.4529 11.7812 13.9691 12.8752 12.8752C13.9691 11.7812 15.4529 11.1666 17 11.1666C18.5471 11.1666 20.0308 11.7812 21.1248 12.8752C22.2187 13.9691 22.8333 15.4529 22.8333 17C22.8333 17.766 22.6824 18.5245 22.3893 19.2323C22.0961 19.94 21.6664 20.5831 21.1248 21.1247C20.5831 21.6664 19.94 22.0961 19.2323 22.3893C18.5245 22.6824 17.766 22.8333 17 22.8333ZM17 0.666626C12.6681 0.666626 8.51364 2.38745 5.45055 5.45055C2.38745 8.51364 0.666626 12.6681 0.666626 17C0.666626 29.25 17 47.3333 17 47.3333C17 47.3333 33.3333 29.25 33.3333 17C33.3333 12.6681 31.6125 8.51364 28.5494 5.45055C25.4863 2.38745 21.3318 0.666626 17 0.666626Z" fill="#86BE5C"/>
</svg>
