<svg width="13" height="18" viewBox="0 0 13 18" fill="none" xmlns="http://www.w3.org/2000/svg">
<path d="M6.10095 0.325806C2.79253 0.325806 0.100952 3.14187 0.100952 6.60326C0.100952 10.8989 5.47036 17.2053 5.69897 17.4716C5.9137 17.7219 6.2886 17.7214 6.50293 17.4716C6.73154 17.2053 12.101 10.8989 12.101 6.60326C12.1009 3.14187 9.40934 0.325806 6.10095 0.325806ZM6.10095 9.76162C4.43641 9.76162 3.08223 8.34478 3.08223 6.60326C3.08223 4.86173 4.43644 3.44493 6.10095 3.44493C7.76547 3.44493 9.11964 4.86176 9.11964 6.60329C9.11964 8.34482 7.76547 9.76162 6.10095 9.76162Z" fill="white"/>
</svg>
