<svg width="18" height="12" viewBox="0 0 18 12" fill="none" xmlns="http://www.w3.org/2000/svg">
<path fill-rule="evenodd" clip-rule="evenodd" d="M0.75 6.0131C2.0475 2.66041 5.25 0.285278 9 0.285278C12.75 0.285278 15.9525 2.66041 17.25 6.0131C15.9525 9.36578 12.75 11.7409 9 11.7409C5.25 11.7409 2.0475 9.36578 0.75 6.0131ZM15.615 6.0131C14.3775 3.4394 11.8425 1.8127 9 1.8127C6.1575 1.8127 3.6225 3.4394 2.385 6.0131C3.6225 8.5868 6.1575 10.2135 9 10.2135C11.8425 10.2135 14.3775 8.5868 15.615 6.0131ZM9 4.10383C10.035 4.10383 10.875 4.95918 10.875 6.0131C10.875 7.06702 10.035 7.92237 9 7.92237C7.965 7.92237 7.125 7.06702 7.125 6.0131C7.125 4.95918 7.965 4.10383 9 4.10383ZM5.625 6.0131C5.625 4.1191 7.14 2.57641 9 2.57641C10.86 2.57641 12.375 4.1191 12.375 6.0131C12.375 7.9071 10.86 9.44979 9 9.44979C7.14 9.44979 5.625 7.9071 5.625 6.0131Z" fill="#86BE5C"/>
</svg>
