<svg width="21" height="12" viewBox="0 0 21 12" fill="none" xmlns="http://www.w3.org/2000/svg">
<path d="M20.2656 1.68735C20.2656 1.68735 20.1181 1.28815 19.2015 1.39793L16.1673 1.41789C15.9355 1.38795 15.767 1.47777 15.767 1.47777C15.767 1.47777 15.5879 1.56759 15.5036 1.78716C15.0084 2.99475 14.3763 4.03267 14.3763 4.03267C13.0277 6.20833 12.4799 6.32809 12.2586 6.18837C11.7424 5.87899 11.8794 4.93088 11.8794 4.25224C11.8794 2.13646 12.2165 1.25821 11.2156 1.02867C10.889 0.958808 10.6467 0.908909 9.79335 0.898929C8.70819 0.888948 7.7916 0.898928 7.27536 1.13845C6.92769 1.29813 6.66431 1.65741 6.82234 1.67737C7.02251 1.70731 7.47554 1.79714 7.71785 2.10652C7.71785 2.10652 7.98124 2.5157 8.02338 3.41391C8.13927 5.89895 7.60196 6.20833 7.60196 6.20833C7.19108 6.41791 6.47467 6.06861 5.42112 4.01271C5.42112 4.01271 4.81006 2.99475 4.33596 1.87698C4.25168 1.66739 4.08311 1.55761 4.08311 1.55761C4.08311 1.55761 3.89347 1.41789 3.61955 1.37797L0.732826 1.39793C0.290336 1.39793 0.132303 1.58755 0.132303 1.58755C0.132303 1.58755 -0.025729 1.74723 0.121768 2.07658C2.37636 7.09656 4.94702 9.61154 4.94702 9.61154C4.94702 9.61154 7.29643 11.9369 9.96191 11.7772H11.1735C11.5422 11.7473 11.7319 11.5577 11.7319 11.5577C11.7319 11.5577 11.9004 11.378 11.8899 11.0487C11.8688 9.51174 12.6274 9.2822 12.6274 9.2822C13.3649 9.06264 14.3131 10.7692 15.3245 11.4279C15.3245 11.4279 16.0936 11.9269 16.673 11.8171L19.3701 11.7772C20.7924 11.7672 20.1181 10.6495 20.1181 10.6495C20.0654 10.5596 19.7283 9.87102 18.1058 8.44387C16.4202 6.95684 16.6414 7.19636 18.6853 4.6215C19.9285 3.05463 20.4237 2.09654 20.2656 1.68735Z" fill="#8A8A8A"/>
</svg>
