<svg width="19" height="22" viewBox="0 0 19 22" fill="none" xmlns="http://www.w3.org/2000/svg">
<g filter="url(#filter0_d)">
<path d="M8.70312 13.7266C8.26562 13.0885 7.76432 12.3685 7.19922 11.5664C6.65234 10.7643 6.26042 10.1992 6.02344 9.87109C5.78646 9.54297 5.51302 9.14193 5.20312 8.66797C4.89323 8.17578 4.68359 7.82943 4.57422 7.62891C4.48307 7.42839 4.3737 7.17318 4.24609 6.86328C4.13672 6.55339 4.0638 6.28906 4.02734 6.07031C4.00911 5.83333 4 5.5599 4 5.25C4 3.79167 4.51042 2.55208 5.53125 1.53125C6.55208 0.510417 7.79167 0 9.25 0C10.7083 0 11.9479 0.510417 12.9688 1.53125C13.9896 2.55208 14.5 3.79167 14.5 5.25C14.5 5.5599 14.4818 5.83333 14.4453 6.07031C14.4271 6.28906 14.3542 6.55339 14.2266 6.86328C14.1172 7.17318 14.0078 7.42839 13.8984 7.62891C13.8073 7.82943 13.6068 8.17578 13.2969 8.66797C12.987 9.14193 12.7135 9.54297 12.4766 9.87109C12.2396 10.1992 11.8385 10.7643 11.2734 11.5664C10.7266 12.3685 10.2344 13.0885 9.79688 13.7266C9.66927 13.9089 9.48698 14 9.25 14C9.01302 14 8.83073 13.9089 8.70312 13.7266ZM7.69141 6.80859C8.12891 7.22786 8.64844 7.4375 9.25 7.4375C9.85156 7.4375 10.362 7.22786 10.7812 6.80859C11.2188 6.37109 11.4375 5.85156 11.4375 5.25C11.4375 4.64844 11.2188 4.13802 10.7812 3.71875C10.362 3.28125 9.85156 3.0625 9.25 3.0625C8.64844 3.0625 8.12891 3.28125 7.69141 3.71875C7.27214 4.13802 7.0625 4.64844 7.0625 5.25C7.0625 5.85156 7.27214 6.37109 7.69141 6.80859Z" fill="#86BE5C"/>
</g>
<defs>
<filter id="filter0_d" x="0" y="0" width="18.5" height="22" filterUnits="userSpaceOnUse" color-interpolation-filters="sRGB">
<feFlood flood-opacity="0" result="BackgroundImageFix"/>
<feColorMatrix in="SourceAlpha" type="matrix" values="0 0 0 0 0 0 0 0 0 0 0 0 0 0 0 0 0 0 127 0"/>
<feOffset dy="4"/>
<feGaussianBlur stdDeviation="2"/>
<feColorMatrix type="matrix" values="0 0 0 0 0 0 0 0 0 0 0 0 0 0 0 0 0 0 0.25 0"/>
<feBlend mode="normal" in2="BackgroundImageFix" result="effect1_dropShadow"/>
<feBlend mode="normal" in="SourceGraphic" in2="effect1_dropShadow" result="shape"/>
</filter>
</defs>
</svg>
